<svg fill="none" height="42" viewBox="0 0 43 42" width="43" xmlns="http://www.w3.org/2000/svg"><g stroke="#acc2d2" stroke-linecap="round" stroke-width="2"><path d="m3.5 3v33c0 1.6569 1.34315 3 3 3h33"/><path d="m19.5 3h17c1.6569 0 3 1.34315 3 3v20.5858c0 .8909-1.0771 1.3371-1.7071.7071l-8.2929-8.2929"/><path d="m1.5 1 40 40"/><path d="m25.5 27-12 12"/></g><path d="m20.2453 20c-1.2649 1.8135-3.3666 3-5.7453 3-3.866 0-7-3.134-7-7 0-2.5463 1.35958-4.7751 3.3924-6 1.0704 1.0826 8.7781 9.8357 9.3529 10z" fill="#acc2d2"/></svg>