<svg width="43" height="42" viewBox="0 0 43 42" fill="none" xmlns="http://www.w3.org/2000/svg">
<path d="M3.5 3V36C3.5 37.6569 4.84315 39 6.5 39H39.5" stroke="white" stroke-width="2" stroke-linecap="round"/>
<path d="M19.5 3L36.5 3C38.1569 3 39.5 4.34315 39.5 6L39.5 26.5858C39.5 27.4767 38.4229 27.9229 37.7929 27.2929L29.5 19" stroke="white" stroke-width="2" stroke-linecap="round"/>
<path d="M1.5 1L41.5 41" stroke="white" stroke-width="2" stroke-linecap="round"/>
<path d="M25.5 27L13.5 39" stroke="white" stroke-width="2" stroke-linecap="round"/>
<path d="M20.2453 20C18.9804 21.8135 16.8787 23 14.5 23C10.634 23 7.5 19.866 7.5 16C7.5 13.4537 8.85958 11.2249 10.8924 10C11.9628 11.0826 19.6705 19.8357 20.2453 20Z" fill="white"/>
</svg>
