<svg fill="none" height="96" viewBox="0 0 88 96" width="88" xmlns="http://www.w3.org/2000/svg"><path d="m79.3908 18.2146-27.7351-16.00532c-4.9112-2.845038-10.9827-2.845038-15.894 0l-27.73509 16.00532c-4.91126 2.845-7.9470202 8.09-7.9470202 13.7642v32.0265c0 5.6742 3.0357602 10.9192 7.9470202 13.7642l27.73509 16.0212c4.9113 2.8451 10.9828 2.8451 15.894 0l27.7351-16.0212c4.9113-2.845 7.9471-8.09 7.9471-13.7642v-32.0265c0-5.6742-3.0199-10.9192-7.9471-13.7642zm-13.6688 32.9642-8.249 14.2888c-1.1285 1.9708-3.2265 3.1788-5.4994 3.1788h-16.5139c-2.2728 0-4.3708-1.208-5.4993-3.1788l-8.2649-14.2888c-1.1285-1.9709-1.1285-4.3867 0-6.3576l8.249-14.2887c1.1285-1.9709 3.2265-3.1789 5.4993-3.1789h16.498c2.2729 0 4.3709 1.208 5.4994 3.1789l8.249 14.2887c1.1602 1.9709 1.1602 4.3867.0318 6.3576z" fill="#fe005b"/></svg>