<svg fill="none" height="80" viewBox="0 0 80 80" width="80" xmlns="http://www.w3.org/2000/svg" xmlns:xlink="http://www.w3.org/1999/xlink"><clipPath id="a"><path d="m18 16h43.7086v48h-43.7086z"/></clipPath><rect fill="#fff" height="80" rx="40" width="80"/><g clip-path="url(#a)"><path d="m57.6957 25.1071-13.8676-8.0026c-2.4556-1.4225-5.4914-1.4225-7.947 0l-13.8676 8.0026c-2.4556 1.4226-3.9735 4.0451-3.9735 6.8822v16.0132c0 2.8371 1.5179 5.4596 3.9735 6.8821l13.8676 8.0106c2.4556 1.4225 5.4914 1.4225 7.947 0l13.8676-8.0106c2.4556-1.4225 3.9735-4.045 3.9735-6.8821v-16.0132c0-2.8371-1.51-5.4596-3.9735-6.8822zm-6.8345 16.4822-4.1245 7.1443c-.5642.9855-1.6132 1.5894-2.7496 1.5894h-8.257c-1.1364 0-2.1854-.6039-2.7497-1.5894l-4.1324-7.1443c-.5643-.9855-.5643-2.1934 0-3.1789l4.1245-7.1443c.5642-.9855 1.6132-1.5894 2.7497-1.5894h8.249c1.1364 0 2.1854.6039 2.7496 1.5894l4.1245 7.1443c.5802.9855.5802 2.1934.0159 3.1789z" fill="#fe005b"/><path d="m50.8612 41.5893-4.1245 7.1444c-.5642.9854-1.6132 1.5894-2.7496 1.5894h-8.257c-1.1364 0-2.1854-.604-2.7497-1.5894l-4.1324-7.1444c-.5643-.9854-.5643-2.1933 0-3.1788l4.1245-7.1443c.5642-.9855 1.6132-1.5894 2.7497-1.5894h8.249c1.1364 0 2.1854.6039 2.7496 1.5894l4.1245 7.1443c.5802.9855.5802 2.1934.0159 3.1788z" fill="#fff1f8"/></g></svg>