<svg width="40" height="40" viewBox="0 0 40 40" fill="none" xmlns="http://www.w3.org/2000/svg">
<g id="social-media-logos">
<rect width="40" height="40" rx="20" fill="#FF5100"/>
<path id="Oval-1" d="M5.72837 21.5513L5.5166 23.4037L5.72837 25.2243C5.73623 25.301 5.7841 25.3544 5.84458 25.3544C5.90313 25.3544 5.95083 25.3015 5.96011 25.2251L6.21119 23.4037L5.96011 21.5508C5.95121 21.4744 5.90285 21.4206 5.84458 21.4206C5.78415 21.4206 5.73618 21.4744 5.72837 21.5513ZM7.43081 20.4084C7.43081 20.409 7.14601 23.4035 7.14601 23.4035L7.43081 26.3323C7.43888 26.4109 7.48965 26.4675 7.55138 26.4675C7.61192 26.4675 7.66159 26.4122 7.67155 26.3331L7.99551 23.4035L7.67194 20.4084C7.66201 20.3288 7.61243 20.2738 7.55138 20.2738C7.48999 20.2738 7.43919 20.3306 7.43081 20.4084ZM9.0308 19.7536L8.77547 23.4046L9.0308 26.937C9.03763 27.0464 9.1112 27.129 9.20093 27.129C9.28964 27.129 9.36291 27.0463 9.37077 26.937L9.66118 23.4046L9.37077 19.7528C9.36301 19.6434 9.28976 19.5608 9.20093 19.5608C9.1112 19.5608 9.03804 19.6435 9.0308 19.7536ZM10.6457 20.0179L10.405 23.4047L10.6457 26.9662C10.6527 27.0919 10.7358 27.1869 10.8405 27.1869C10.9436 27.1869 11.0271 27.0918 11.0348 26.9666L11.3084 23.4047L11.0348 20.0164C11.0275 19.8912 10.9439 19.7969 10.8405 19.7969C10.7357 19.7969 10.6523 19.892 10.6457 20.0179ZM12.2613 17.8957L12.0344 23.4061L12.2613 26.9673C12.2672 27.1065 12.3783 27.2162 12.4952 27.2162C12.6115 27.2162 12.7296 27.1059 12.7296 26.9664L12.971 23.4061L12.7071 17.8957C12.7001 17.7558 12.5965 17.6456 12.4802 17.6456C12.3634 17.6456 12.2669 17.7557 12.2613 17.8957ZM13.8756 16.6363C13.8756 16.6368 13.6639 23.4072 13.6639 23.4072L13.8761 26.9459C13.8814 27.1005 13.9886 27.2229 14.12 27.2229C14.2502 27.2229 14.3577 27.1005 14.3639 26.9446L14.6032 23.4072L14.3639 16.6363C14.3574 16.4801 14.2502 16.3581 14.1199 16.3581C13.9886 16.3581 13.8814 16.4803 13.8756 16.6363ZM15.4758 15.8247L15.2933 23.4079L15.4761 26.8886C15.4805 27.0752 15.6375 27.2227 15.7973 27.2227C15.9568 27.2227 16.1187 27.0752 16.1187 26.8875L16.296 23.4081L16.0766 15.8246C16.0715 15.6365 15.9285 15.4887 15.7693 15.4887C15.6092 15.4887 15.4802 15.636 15.4758 15.8247ZM17.0762 16.2896L16.9229 23.4094L17.0762 26.8354C17.0799 27.0536 17.2345 27.2261 17.4233 27.2261C17.6114 27.2261 17.7698 27.0538 17.7698 26.8331L17.9379 23.4098L17.7641 16.2891C17.7595 16.0686 17.6076 15.896 17.4194 15.896C17.231 15.896 17.0798 16.0686 17.0762 16.2896ZM18.713 14.1702L18.5524 23.4112L18.7135 26.7648C18.7163 27.0101 18.9113 27.2118 19.1252 27.2118C19.3387 27.2118 19.5369 27.0099 19.5369 26.7612L19.6923 23.4112L19.5077 14.1695C19.5046 13.9217 19.3193 13.7195 19.1059 13.7195C18.8919 13.7195 18.7163 13.9217 18.713 14.1702ZM29.5424 19.3554C29.2589 15.6583 26.5661 12.7583 23.2816 12.7583C22.4778 12.7583 21.698 12.9404 21.0061 13.2485C20.7372 13.3683 20.6666 13.4917 20.6666 13.7308V26.7503C20.6666 27.0013 20.8351 27.2105 21.0477 27.2351C21.0567 27.2362 30.8584 27.2419 30.9219 27.2419C32.8895 27.2419 34.4838 25.4051 34.4838 23.1395C34.4838 20.8739 32.8879 19.0368 30.9205 19.0368C30.4324 19.0368 29.9665 19.1505 29.5424 19.3553V19.3554Z" fill="white"/>
</g>
</svg>
