<svg width="40" height="40" viewBox="0 0 40 40" fill="none" xmlns="http://www.w3.org/2000/svg">
<rect width="40" height="40" rx="20" fill="#0078B5"/>
<path d="M9.72328 16.2605H14.0898V30.3129H9.72328V16.2605ZM11.9082 9.27539C13.3046 9.27539 14.4381 10.4089 14.4381 11.8086C14.4381 13.2082 13.3046 14.3417 11.9082 14.3417C10.5085 14.3417 9.37501 13.2082 9.37501 11.8086C9.37172 10.4122 10.5052 9.27539 11.9082 9.27539Z" fill="white"/>
<path d="M16.8301 16.2607H21.0192V18.1795H21.0783C21.6599 17.0756 23.0825 15.9092 25.2116 15.9092C29.634 15.9092 30.4521 18.8202 30.4521 22.6019V30.3131H26.0855V23.4824C26.0855 21.8495 26.056 19.7566 23.8152 19.7566C21.5416 19.7566 21.1933 21.5308 21.1933 23.3642V30.3164H16.8301V16.2607Z" fill="white"/>
</svg>
