<svg width="40" height="40" viewBox="0 0 40 40" fill="none" xmlns="http://www.w3.org/2000/svg">
<g id="social-media-logos">
<rect width="40" height="40" rx="20" fill="#243542"/>
<path id="Spotify" fill-rule="evenodd" clip-rule="evenodd" d="M20 6.25C12.4375 6.25 6.25 12.4375 6.25 20C6.25 27.5625 12.4375 33.75 20 33.75C27.5625 33.75 33.75 27.5625 33.75 20C33.75 12.4375 27.6313 6.25 20 6.25ZM26.325 26.1188C26.05 26.5312 25.5688 26.6688 25.1562 26.3938C21.925 24.4 17.8687 23.9875 13.0563 25.0875C12.575 25.225 12.1625 24.8813 12.025 24.4688C11.8875 23.9875 12.2313 23.575 12.6438 23.4375C17.8687 22.2687 22.4062 22.75 25.9812 24.95C26.4625 25.1562 26.5312 25.7063 26.325 26.1188ZM27.975 22.3375C27.6313 22.8187 27.0125 23.025 26.5312 22.6813C22.8188 20.4125 17.1812 19.725 12.85 21.1C12.3 21.2375 11.6813 20.9625 11.5437 20.4125C11.4062 19.8625 11.6813 19.2437 12.2312 19.1062C17.25 17.5938 23.4375 18.35 27.7 20.9625C28.1125 21.1688 28.3188 21.8562 27.975 22.3375ZM28.1125 18.4875C23.7125 15.875 16.3562 15.6 12.1625 16.9062C11.475 17.1125 10.7875 16.7 10.5813 16.0812C10.375 15.3937 10.7875 14.7063 11.4062 14.5C16.2875 13.0563 24.3312 13.3313 29.4187 16.3562C30.0375 16.7 30.2437 17.525 29.9 18.1438C29.5562 18.625 28.7313 18.8313 28.1125 18.4875Z" fill="white"/>
</g>
</svg>
