<svg width="40" height="40" viewBox="0 0 40 40" fill="none" xmlns="http://www.w3.org/2000/svg">
<rect width="40" height="40" rx="20" fill="#855DCD"/>
<path fill-rule="evenodd" clip-rule="evenodd" d="M15.7647 32.4663H7.03404V31.512C7.03404 31.0728 7.39013 30.7167 7.82935 30.7167H7.98839V29.7624C7.98839 29.3231 8.34445 28.9671 8.78367 28.9671V14.811H7.90887L6.875 11.3117H11.4877V7.8125H28.8248V11.3117H33.4375L32.4036 14.811H31.5288V28.9671C31.9681 28.9671 32.3241 29.3231 32.3241 29.7624V30.7167H32.4831C32.9224 30.7167 33.2785 31.0728 33.2785 31.512V32.4663H24.5576V31.512C24.5576 31.0728 24.9137 30.7167 25.3529 30.7167H25.5119V29.7624C25.5119 29.3323 25.8533 28.9819 26.2799 28.9676V21.1733C25.9986 18.0522 23.3506 15.6063 20.1562 15.6063C16.9619 15.6063 14.3139 18.0522 14.0326 21.1733V28.9673C14.4637 28.9766 14.8104 29.329 14.8104 29.7624V30.2395V30.7167H14.9694C15.4086 30.7167 15.7647 31.0728 15.7647 31.512V32.4663Z" fill="white"/>
</svg>
