<svg width="40" height="40" viewBox="0 0 40 40" fill="none" xmlns="http://www.w3.org/2000/svg">
<g id="social-media-logos">
<rect width="40" height="40" rx="20" fill="#FF0000"/>
<path id="Vector" d="M32.7277 13.5641C32.4237 12.4121 31.5237 11.5081 30.3797 11.2001C28.3077 10.6401 20.0037 10.6401 20.0037 10.6401C20.0037 10.6401 11.6957 10.6401 9.62773 11.2001C8.48373 11.5081 7.58373 12.4121 7.27973 13.5641C6.71973 15.6481 6.71973 20.0001 6.71973 20.0001C6.71973 20.0001 6.71973 24.3521 7.27573 26.4361C7.57973 27.5881 8.47973 28.4921 9.62373 28.8001C11.6957 29.3601 19.9997 29.3601 19.9997 29.3601C19.9997 29.3601 28.3077 29.3601 30.3757 28.8001C31.5197 28.4921 32.4197 27.5881 32.7237 26.4361C33.2797 24.3521 33.2797 20.0001 33.2797 20.0001C33.2797 20.0001 33.2797 15.6481 32.7277 13.5641ZM17.2837 23.9481V16.0521L24.2237 20.0001L17.2837 23.9481Z" fill="white"/>
</g>
</svg>
