<svg width="40" height="40" viewBox="0 0 40 40" fill="none" xmlns="http://www.w3.org/2000/svg">
<g id="social-media-logos">
<rect width="40" height="40" rx="20" fill="url(#paint0_linear_372_15587)"/>
<path id="Vector" d="M19.9997 8.80814C23.6437 8.80814 24.0758 8.82014 25.5158 8.88814C26.8477 8.94814 27.5717 9.17214 28.0517 9.36014C28.6877 9.60814 29.1438 9.90415 29.6198 10.3801C30.0958 10.8561 30.3918 11.3121 30.6397 11.9481C30.8278 12.4281 31.0477 13.1521 31.1117 14.4841C31.1757 15.9241 31.1917 16.3561 31.1917 20.0001C31.1917 23.6441 31.1797 24.0761 31.1117 25.5161C31.0517 26.8481 30.8278 27.5721 30.6397 28.0521C30.3918 28.6881 30.0958 29.1441 29.6198 29.6201C29.1438 30.0961 28.6877 30.3921 28.0517 30.6401C27.5717 30.8281 26.8477 31.0481 25.5158 31.1121C24.0758 31.1761 23.6437 31.1921 19.9997 31.1921C16.3557 31.1921 15.9237 31.1801 14.4837 31.1121C13.1518 31.0521 12.4278 30.8281 11.9478 30.6401C11.3117 30.3921 10.8557 30.0961 10.3797 29.6201C9.90375 29.1441 9.60775 28.6881 9.35975 28.0521C9.17175 27.5721 8.95175 26.8481 8.88775 25.5161C8.82375 24.0761 8.80775 23.6441 8.80775 20.0001C8.80775 16.3561 8.81975 15.9241 8.88775 14.4841C8.94775 13.1521 9.17175 12.4281 9.35975 11.9481C9.60775 11.3121 9.90375 10.8561 10.3797 10.3801C10.8557 9.90415 11.3117 9.60814 11.9478 9.36014C12.4278 9.17214 13.1518 8.95214 14.4837 8.88814C15.9237 8.82014 16.3557 8.80814 19.9997 8.80814ZM19.9997 6.34814C16.2917 6.34814 15.8277 6.36414 14.3717 6.43214C12.9197 6.50014 11.9277 6.72814 11.0557 7.06814C10.1597 7.41214 9.39575 7.88014 8.63975 8.64014C7.87975 9.40014 7.41575 10.1601 7.06375 11.0601C6.72775 11.9281 6.49575 12.9201 6.42775 14.3761C6.35975 15.8321 6.34375 16.2961 6.34375 20.0041C6.34375 23.7121 6.35975 24.1761 6.42775 25.6321C6.49575 27.0841 6.72375 28.0761 7.06375 28.9481C7.41175 29.8401 7.87975 30.6041 8.63975 31.3601C9.39975 32.1201 10.1597 32.5841 11.0597 32.9361C11.9277 33.2721 12.9197 33.5041 14.3757 33.5721C15.8317 33.6401 16.2957 33.6561 20.0037 33.6561C23.7118 33.6561 24.1757 33.6401 25.6317 33.5721C27.0837 33.5041 28.0757 33.2761 28.9477 32.9361C29.8397 32.5881 30.6038 32.1201 31.3598 31.3601C32.1198 30.6001 32.5838 29.8401 32.9358 28.9401C33.2718 28.0721 33.5037 27.0801 33.5717 25.6241C33.6397 24.1681 33.6558 23.7041 33.6558 19.9961C33.6558 16.2881 33.6397 15.8241 33.5717 14.3681C33.5037 12.9161 33.2758 11.9241 32.9358 11.0521C32.5878 10.1601 32.1198 9.39614 31.3598 8.64014C30.5998 7.88014 29.8398 7.41614 28.9398 7.06414C28.0718 6.72814 27.0797 6.49614 25.6237 6.42814C24.1717 6.36414 23.7077 6.34814 19.9997 6.34814Z" fill="white"/>
<path id="Vector_2" d="M20.0003 12.9878C16.1283 12.9878 12.9883 16.1278 12.9883 19.9998C12.9883 23.8718 16.1283 27.0118 20.0003 27.0118C23.8723 27.0118 27.0123 23.8718 27.0123 19.9998C27.0123 16.1278 23.8723 12.9878 20.0003 12.9878ZM20.0003 24.5518C17.4883 24.5518 15.4483 22.5158 15.4483 19.9998C15.4483 17.4838 17.4883 15.4478 20.0003 15.4478C22.5123 15.4478 24.5523 17.4838 24.5523 19.9998C24.5523 22.5158 22.5123 24.5518 20.0003 24.5518Z" fill="white"/>
<path id="Vector_3" d="M27.2884 14.3518C28.1942 14.3518 28.9284 13.6175 28.9284 12.7118C28.9284 11.806 28.1942 11.0718 27.2884 11.0718C26.3827 11.0718 25.6484 11.806 25.6484 12.7118C25.6484 13.6175 26.3827 14.3518 27.2884 14.3518Z" fill="white"/>
</g>
<defs>
<linearGradient id="paint0_linear_372_15587" x1="5.85786" y1="34.1421" x2="34.1421" y2="5.85786" gradientUnits="userSpaceOnUse">
<stop stop-color="#FFD521"/>
<stop offset="0.0551048" stop-color="#FFD020"/>
<stop offset="0.1241" stop-color="#FEC01E"/>
<stop offset="0.2004" stop-color="#FCA71B"/>
<stop offset="0.2821" stop-color="#FA8316"/>
<stop offset="0.3681" stop-color="#F85510"/>
<stop offset="0.4563" stop-color="#F51E09"/>
<stop offset="0.5" stop-color="#F30005"/>
<stop offset="0.5035" stop-color="#F20007"/>
<stop offset="0.5966" stop-color="#E1003B"/>
<stop offset="0.6879" stop-color="#D30067"/>
<stop offset="0.7757" stop-color="#C70088"/>
<stop offset="0.8589" stop-color="#BF00A0"/>
<stop offset="0.9357" stop-color="#BB00AF"/>
<stop offset="1" stop-color="#B900B4"/>
</linearGradient>
</defs>
</svg>
