<svg fill="none" height="88" viewBox="0 0 88 88" width="88" xmlns="http://www.w3.org/2000/svg" xmlns:xlink="http://www.w3.org/1999/xlink"><filter id="a" color-interpolation-filters="sRGB" filterUnits="userSpaceOnUse" height="87" width="87" x=".5" y="4.5"><feFlood flood-opacity="0" result="BackgroundImageFix"/><feColorMatrix in="SourceAlpha" result="hardAlpha" type="matrix" values="0 0 0 0 0 0 0 0 0 0 0 0 0 0 0 0 0 0 127 0"/><feOffset dy="4"/><feGaussianBlur stdDeviation="10"/><feComposite in2="hardAlpha" operator="out"/><feColorMatrix type="matrix" values="0 0 0 0 0.529412 0 0 0 0 0.678431 0 0 0 0 0.796078 0 0 0 1 0"/><feBlend in2="BackgroundImageFix" mode="normal" result="effect1_dropShadow_777_5564"/><feBlend in="SourceGraphic" in2="effect1_dropShadow_777_5564" mode="normal" result="shape"/></filter><clipPath id="b"><rect height="88" rx="44" width="88"/></clipPath><g clip-path="url(#b)"><rect fill="#fff" height="88" rx="44" width="88"/><circle cx="44" cy="44" fill="#adc4d9" fill-opacity=".4" r="43"/><circle cx="44" cy="44" fill="#fff" fill-opacity=".05" r="43"/><g stroke="#fff"><circle cx="44" cy="44" r="43" stroke-width="2"/><g filter="url(#a)" stroke-width="1.5"><path d="m30.5316 36.8097 13.4683-7.3872 13.4684 7.3872v14.7089l-13.4684 7.3872-13.4683-7.3872z"/><path d="m36.6064 46.3642v2.0112m0-6.2224v-2.0112l3.6968-2.0112 1.8484-1.0056m9.2419 3.0168v2.0112m0 4.0224v2.0112l-3.6968 2.0112-1.8483 1.0056" stroke-linecap="round"/><circle cx="44" cy="44" r="22.75"/><circle cx="43.9999" cy="36.3328" r="1.87687"/><circle cx="43.9999" cy="52.3239" r="1.87687"/></g></g></g></svg>